<svg xmlns="http://www.w3.org/2000/svg" data-name="Layer 1" viewBox="0 0 100 125" x="0px" y="0px"><title>collections_06</title><path d="M52.19,55.46a29.85,29.85,0,0,1-6.12-3.82C48.21,48,53.4,40.69,58,39.81a21.6,21.6,0,0,0,12.14,7.95,1,1,0,0,0,.5-1.94A19.69,19.69,0,0,1,59.28,38.3a1,1,0,0,0-.16-0.22,18.41,18.41,0,0,1-3-6.72,1,1,0,0,0-1.53-.66,75.8,75.8,0,0,0-8,6.06c-5.44,4.81-7.45,8.48-6.15,11.21,2.31,4.85,8.37,8.1,10.32,9V69.87a1,1,0,0,0,2,0V56.37A1,1,0,0,0,52.19,55.46Zm-9.92-8.35c-0.82-1.72,1.83-7,12.24-14A22.47,22.47,0,0,0,56.78,38c-5.4,1.69-10.44,9.31-12.21,12.22A12,12,0,0,1,42.28,47.11ZM69.5,55.62A12.63,12.63,0,1,0,82.12,68.25,12.64,12.64,0,0,0,69.5,55.62Zm0,23.25A10.63,10.63,0,1,1,80.12,68.25,10.64,10.64,0,0,1,69.5,78.87ZM46.13,68.25A12.63,12.63,0,1,1,22,62.94a1,1,0,0,1,1.81.84,10.63,10.63,0,1,0,16.53-3.61H26.23a1,1,0,0,1,0-2H40.77l0.13,0,0.2,0a1,1,0,0,1,.19.1l0.11,0.06,0.08,0.07h0A12.55,12.55,0,0,1,46.13,68.25ZM21.88,49.37H36.54a1,1,0,0,1,0,2H21.88A1,1,0,1,1,21.88,49.37Zm11.66-6H18.88a1,1,0,1,1,0-2H33.54A1,1,0,0,1,33.54,43.37ZM61.75,29.54a5.21,5.21,0,1,0-5.21-5.21A5.21,5.21,0,0,0,61.75,29.54Zm0-8.42a3.21,3.21,0,1,1-3.21,3.21A3.21,3.21,0,0,1,61.75,21.12ZM69.5,65.38a2.87,2.87,0,1,0,2.87,2.87A2.87,2.87,0,0,0,69.5,65.38Zm0,3.73a0.87,0.87,0,1,1,.87-0.87A0.87,0.87,0,0,1,69.5,69.11Zm-33.14-.87a2.87,2.87,0,1,0-2.87,2.87A2.87,2.87,0,0,0,36.36,68.25Zm-3.73,0a0.87,0.87,0,1,1,.87.87A0.87,0.87,0,0,1,32.63,68.25Z"/><text x="0" y="115" fill="#000000" font-size="5px" font-weight="bold" font-family="'Helvetica Neue', Helvetica, Arial-Unicode, Arial, Sans-serif">Created by Karthik Srinivas</text><text x="0" y="120" fill="#000000" font-size="5px" font-weight="bold" font-family="'Helvetica Neue', Helvetica, Arial-Unicode, Arial, Sans-serif">from the Noun Project</text></svg>